<?xml version="1.0" encoding="UTF-8"?>
<svg xmlns="http://www.w3.org/2000/svg" xmlns:xlink="http://www.w3.org/1999/xlink" width="30pt" height="30pt" viewBox="0 0 30 30" version="1.1">
<g id="surface13341359">
<path style=" stroke:none;fill-rule:nonzero;fill:rgb(100%,100%,100%);fill-opacity:1;" d="M 24.601562 2.398438 L 5.398438 2.398438 C 3.742188 2.398438 2.398438 3.742188 2.398438 5.398438 L 2.398438 24.601562 C 2.398438 26.257812 3.742188 27.601562 5.398438 27.601562 L 24.601562 27.601562 C 26.257812 27.601562 27.601562 26.257812 27.601562 24.601562 L 27.601562 5.398438 C 27.601562 3.742188 26.257812 2.398438 24.601562 2.398438 Z M 22.199219 11.398438 L 21 11.398438 C 19.714844 11.398438 19.199219 11.699219 19.199219 12.601562 L 19.199219 14.398438 L 22.199219 14.398438 L 21.601562 17.398438 L 19.199219 17.398438 L 19.199219 26.398438 L 16.199219 26.398438 L 16.199219 17.398438 L 13.800781 17.398438 L 13.800781 14.398438 L 16.199219 14.398438 L 16.199219 12.601562 C 16.199219 10.199219 17.398438 8.398438 19.800781 8.398438 C 21.539062 8.398438 22.199219 9 22.199219 9 Z M 22.199219 11.398438 "/>
</g>
</svg>
