<?xml version="1.0" encoding="UTF-8"?>
<svg xmlns="http://www.w3.org/2000/svg" xmlns:xlink="http://www.w3.org/1999/xlink" width="30pt" height="30pt" viewBox="0 0 30 30" version="1.1">
<g id="surface13686569">
<path style=" stroke:none;fill-rule:nonzero;fill:rgb(100%,100%,100%);fill-opacity:1;" d="M 30 5.375 C 28.878906 5.875 27.75 6.25 26.5 6.378906 C 27.75 5.625 28.75 4.375 29.25 2.996094 C 28 3.75 26.75 4.25 25.375 4.503906 C 24.125 3.25 22.5 2.5 20.753906 2.5 C 17.375 2.5 14.625 5.25 14.625 8.621094 C 14.625 9.125 14.625 9.625 14.75 10 C 9.625 9.75 5.125 7.375 2.125 3.625 C 1.5 4.503906 1.25 5.625 1.25 6.75 C 1.25 8.878906 2.375 10.753906 4 11.875 C 2.996094 11.75 2 11.5 1.25 11.125 C 1.25 11.125 1.25 11.125 1.25 11.25 C 1.25 14.25 3.375 16.75 6.125 17.25 C 5.625 17.375 5.125 17.5 4.503906 17.5 C 4.125 17.5 3.75 17.5 3.375 17.375 C 4.125 19.875 6.378906 21.625 9.125 21.625 C 7 23.253906 4.375 24.25 1.5 24.25 C 1 24.25 0.5 24.25 0 24.125 C 2.75 25.875 6 26.875 9.375 26.875 C 20.753906 26.875 26.875 17.5 26.875 9.375 C 26.875 9.125 26.875 8.878906 26.875 8.625 C 28.125 7.75 29.125 6.625 30 5.375 "/>
</g>
</svg>
